<svg xmlns="http://www.w3.org/2000/svg" viewBox="0 0 512 512" width="512" height="512" role="img" aria-label="Tara Akyat">
  <defs>
    <linearGradient id="bg" x1="72" y1="56" x2="440" y2="456" gradientUnits="userSpaceOnUse">
      <stop stop-color="#0f766e" />
      <stop offset="1" stop-color="#14532d" />
    </linearGradient>
    <linearGradient id="peak" x1="160" y1="172" x2="360" y2="372" gradientUnits="userSpaceOnUse">
      <stop stop-color="#ffffff" />
      <stop offset="1" stop-color="#dcfce7" />
    </linearGradient>
  </defs>
  <rect width="512" height="512" rx="120" fill="url(#bg)" />
  <circle cx="382" cy="146" r="44" fill="#fde68a" />
  <path d="M96 356 210 198c15-21 46-21 61 0l39 53 36-49c15-20 44-20 59 0l111 154H96Z" fill="url(#peak)" />
  <path d="m255 224 22 30h-44l22-30Z" fill="#ecfccb" />
  <path d="M132 396h248" stroke="#dcfce7" stroke-linecap="round" stroke-width="24" />
  <path d="M208 354c18 13 43 20 71 20 26 0 49-7 67-20" stroke="#166534" stroke-linecap="round" stroke-width="18" opacity=".35" />
</svg>
